<svg id="Capa_1" enable-background="new 0 0 512 512" height="512" viewBox="0 0 512 512" width="512" xmlns="http://www.w3.org/2000/svg"><path d="m327.869 219.8-50.044-16.681c-3.003-1.001-5.208-3.498-6.014-6.559-.02-.074-.039-.148-.059-.222-.809-3.045-.149-6.289 1.941-8.646l34.997-39.467c3.413-3.849-.038-9.828-5.079-8.796l-51.802 10.601c-3.092.633-6.24-.42-8.47-2.652-.024-.024-.048-.048-.073-.073-2.233-2.231-3.285-5.378-2.653-8.47l10.6-51.802c1.031-5.04-4.947-8.492-8.796-5.079l-39.467 34.998c-2.357 2.09-5.601 2.749-8.645 1.941-.074-.02-.148-.039-.222-.059-3.061-.806-5.559-3.011-6.56-6.014l-16.681-50.044c-1.627-4.881-8.53-4.881-10.157 0l-16.681 50.044c-1.001 3.003-3.498 5.208-6.56 6.014-1.71.45-3.405.941-5.08 1.475l-43.253-38.357c-3.849-3.413-9.828.038-8.796 5.079l10.6 51.802c.633 3.092-.42 6.24-2.653 8.47-.024.024-.048.048-.072.072-2.231 2.233-5.378 3.285-8.47 2.653l-51.802-10.601c-5.04-1.031-8.492 4.947-5.079 8.796l34.998 39.468c2.09 2.357 2.749 5.601 1.941 8.645-.02.074-.039.148-.059.222-.806 3.061-3.011 5.559-6.014 6.56l-50.045 16.682c-4.881 1.627-4.881 8.53 0 10.157l50.044 16.681c3.003 1.001 5.208 3.498 6.014 6.56.019.074.039.148.059.222.808 3.045.149 6.288-1.941 8.645l-34.998 39.467c-3.413 3.849.038 9.828 5.079 8.796l51.802-10.6c3.092-.633 6.24.42 8.47 2.653l.072.072c2.233 2.231 3.285 5.378 2.653 8.47l-10.6 51.802c-1.031 5.04 4.947 8.492 8.796 5.078l39.467-34.997c2.357-2.09 5.601-2.75 8.646-1.941.074.02.148.039.222.059 3.061.806 5.558 3.011 6.559 6.014l16.681 50.044c1.627 4.88 8.53 4.88 10.157 0l16.681-50.044c1.001-3.003 3.498-5.208 6.559-6.014.074-.02.148-.039.222-.059 3.045-.809 6.289-.149 8.646 1.941l39.467 34.997c3.849 3.413 9.828-.038 8.796-5.078l-10.6-51.802c-.633-3.092.42-6.24 2.653-8.47l.072-.072c2.231-2.233 5.378-3.285 8.47-2.653l51.802 10.6c5.04 1.031 8.492-4.947 5.078-8.796l-34.997-39.467c-2.09-2.357-2.75-5.601-1.941-8.646.02-.074.039-.148.059-.222.806-3.061 3.011-5.558 6.014-6.559l50.044-16.681c4.883-1.627 4.883-8.531.002-10.157z" fill="#ffe07d"/><path d="m267.102 224.878c0 55.967-45.37 101.337-101.337 101.337s-92.265-45.37-92.265-101.337c0-32.287 6.027-61.047 29.55-79.605 17.252-13.61 39.035-21.733 62.715-21.733 55.967.001 101.337 45.371 101.337 101.338z" fill="#ffd064"/><path d="m131.986 207.989c-4.668 0-8.445-3.781-8.445-8.445v-8.445c0-4.664 3.777-8.445 8.445-8.445s8.445 3.781 8.445 8.445v8.445c0 4.663-3.777 8.445-8.445 8.445z" fill="#ff8b5a"/><path d="m199.544 207.989c-4.668 0-8.445-3.781-8.445-8.445v-8.445c0-4.664 3.777-8.445 8.445-8.445s8.445 3.781 8.445 8.445v8.445c0 4.663-3.777 8.445-8.445 8.445z" fill="#ff8b5a"/><path d="m182.654 309.326c-55.967 0-101.337-45.37-101.337-101.337 0-23.677 8.125-45.465 21.732-62.716-23.527 18.557-38.621 47.315-38.621 79.605 0 55.967 45.37 101.337 101.337 101.337 32.29 0 60.988-15.155 79.545-38.681-17.251 13.607-38.979 21.792-62.656 21.792z" fill="#ffc250"/><path d="m460.093 276.72c-4.663-2.297-7.977-6.735-8.812-11.865-9.147-56.188-57.847-99.091-116.621-99.091-32.36 0-61.652 13.03-82.993 34.1-4.601 4.543-11.294 5.948-17.433 3.917-4.326-1.431-8.803-2.526-13.405-3.244-4.183-.653-7.959.628-12.329.628-37.347 0-65.86 25.724-77 59.333-1.942 5.858-9.432 11.376-15.5 12.5-44.483 8.241-69.754 43.859-67.667 91.196 2.21 50.121 36.341 79.47 86.512 79.47h281.47l54.847-7.669c23.194-15.776 39.145-41.308 40.706-70.994 2.034-38.683-19.649-72.454-51.775-88.281z" fill="#edf4ff"/><path d="m202.407 435.997c-44.727 0-83.849-33.566-87.083-78.176-1.852-25.553 7.721-48.841 24.086-65.434 5.603-5.682 9.213-12.861 10.374-20.756 2.549-17.329 10.489-34.017 23.826-47.353 13.303-13.303 29.939-21.197 47.219-23.74-4.186-.654-8.468-.993-12.84-.993-37.345 0-69.009 24.247-80.151 57.853-1.943 5.862-6.815 10.238-12.887 11.363-44.48 8.244-77.851 48.101-75.764 95.436 2.21 50.122 45.489 88.691 95.66 88.691h281.469c20.075 0 39.167-6.258 54.847-16.89z" fill="#dbeaff"/></svg>